<svg id="Capa_1" enable-background="new 0 0 512 512" height="512" viewBox="0 0 512 512" width="512" xmlns="http://www.w3.org/2000/svg"><g><path d="m38.872 149.21h79.098c4.142 0 7.5-3.357 7.5-7.5s-3.358-7.5-7.5-7.5h-79.098c-4.142 0-7.5 3.357-7.5 7.5s3.357 7.5 7.5 7.5z"/><path d="m115.258 185.317h-31.246c-4.142 0-7.5 3.357-7.5 7.5s3.358 7.5 7.5 7.5h31.246c4.142 0 7.5-3.357 7.5-7.5s-3.358-7.5-7.5-7.5z"/><path d="m7.5 237.327h76.512c4.142 0 7.5-3.357 7.5-7.5s-3.358-7.5-7.5-7.5h-76.512c-4.142 0-7.5 3.357-7.5 7.5s3.358 7.5 7.5 7.5z"/><path d="m125.47 370.289c0-4.143-3.358-7.5-7.5-7.5h-79.098c-4.142 0-7.5 3.357-7.5 7.5s3.358 7.5 7.5 7.5h79.098c4.142 0 7.5-3.357 7.5-7.5z"/><path d="m115.258 311.683h-31.246c-4.142 0-7.5 3.357-7.5 7.5s3.358 7.5 7.5 7.5h31.246c4.142 0 7.5-3.357 7.5-7.5s-3.358-7.5-7.5-7.5z"/><path d="m91.512 282.173c0-4.143-3.358-7.5-7.5-7.5h-76.512c-4.142 0-7.5 3.357-7.5 7.5s3.358 7.5 7.5 7.5h76.512c4.142 0 7.5-3.357 7.5-7.5z"/><path d="m319.529 165.83c4.143 0 7.5-3.357 7.5-7.5v-11.448c0-4.143-3.357-7.5-7.5-7.5s-7.5 3.357-7.5 7.5v11.448c0 4.143 3.357 7.5 7.5 7.5z"/><path d="m401.99 173.538c-2.93-2.928-7.678-2.928-10.607 0l-8.095 8.095c-2.929 2.93-2.929 7.678 0 10.607 2.931 2.929 7.678 2.928 10.607 0l8.095-8.095c2.928-2.929 2.928-7.677 0-10.607z"/><path d="m417.199 248.5c-4.143 0-7.5 3.357-7.5 7.5s3.357 7.5 7.5 7.5h11.447c4.143 0 7.5-3.357 7.5-7.5s-3.357-7.5-7.5-7.5z"/><path d="m393.895 319.759c-2.93-2.928-7.678-2.928-10.607 0-2.929 2.93-2.929 7.678 0 10.607l8.095 8.095c2.931 2.929 7.678 2.928 10.607 0 2.929-2.93 2.929-7.678 0-10.607z"/><path d="m312.029 353.67v11.447c0 4.143 3.357 7.5 7.5 7.5s7.5-3.357 7.5-7.5v-11.447c0-4.143-3.357-7.5-7.5-7.5s-7.5 3.358-7.5 7.5z"/><path d="m245.162 319.759-8.095 8.095c-2.929 2.93-2.929 7.678 0 10.607 2.93 2.929 7.678 2.928 10.606 0l8.095-8.095c2.929-2.93 2.929-7.678 0-10.607-2.928-2.928-7.677-2.928-10.606 0z"/><path d="m210.411 248.5c-4.142 0-7.5 3.357-7.5 7.5s3.358 7.5 7.5 7.5h11.448c4.142 0 7.5-3.357 7.5-7.5s-3.358-7.5-7.5-7.5z"/><path d="m255.769 181.633-8.095-8.095c-2.929-2.928-7.678-2.928-10.606 0-2.929 2.93-2.929 7.678 0 10.607l8.095 8.095c2.93 2.929 7.678 2.928 10.606 0 2.929-2.929 2.929-7.677 0-10.607z"/><path d="m359.859 256c0-4.143-3.357-7.5-7.5-7.5h-25.33v-55.684c0-4.143-3.357-7.5-7.5-7.5s-7.5 3.357-7.5 7.5v63.184c0 4.143 3.357 7.5 7.5 7.5h32.83c4.142 0 7.5-3.357 7.5-7.5z"/><path d="m461.741 254.762c4.135-.251 7.283-3.806 7.032-7.94-4.771-78.703-70.327-140.354-149.245-140.354-82.452 0-149.532 67.08-149.532 149.533 0 82.452 67.08 149.532 149.532 149.532 73.869 0 136.9-54.122 147.865-127.157.615-4.096-2.207-7.915-6.304-8.53-4.086-.613-7.915 2.206-8.53 6.304-9.85 65.614-66.506 114.384-133.031 114.384-74.181 0-134.532-60.351-134.532-134.532s60.351-134.533 134.532-134.533c71.001 0 129.98 55.461 134.272 126.263.25 4.132 3.802 7.27 7.941 7.03z"/><path d="m319.528 63.529c-26.381 0-52.228 5.473-76.018 15.708h-132.329c-4.142 0-7.5 3.357-7.5 7.5s3.358 7.5 7.5 7.5h104.113c-14.077 9.06-27.036 19.988-38.462 32.604-2.78 3.069-2.546 7.812.524 10.593 3.071 2.781 7.812 2.546 10.594-.524 33.602-37.102 81.561-58.381 131.578-58.381 97.858 0 177.472 79.613 177.472 177.471 0 97.857-79.613 177.471-177.472 177.471-97.858 0-177.471-79.613-177.471-177.471 0-34.268 9.789-67.528 28.307-96.186 2.248-3.479 1.25-8.121-2.229-10.369-3.479-2.247-8.121-1.251-10.37 2.229-20.09 31.088-30.708 67.163-30.708 104.326 0 67.766 35.206 127.458 88.285 161.763h-104.16c-4.142 0-7.5 3.357-7.5 7.5s3.358 7.5 7.5 7.5h132.225c23.36 10.099 49.097 15.708 76.122 15.708 106.128 0 192.471-86.342 192.471-192.471s-86.343-192.471-192.472-192.471z"/></g></svg>